<svg xmlns="http://www.w3.org/2000/svg" xmlns:xlink="http://www.w3.org/1999/xlink" width="256" height="256" viewBox="0 0 256 256" fill="none"><path d="M256 79.7287C256 76.6897 256.001 73.6503 255.983 70.6109C255.967 68.0507 255.938 65.491 255.868 62.9319C255.718 57.3543 255.389 51.7289 254.397 46.2134C253.391 40.6184 251.748 35.4111 249.159 30.3275C246.614 25.3308 243.29 20.7586 239.323 16.7946C235.357 12.8307 230.784 9.50831 225.785 6.96478C220.696 4.37528 215.483 2.73304 209.882 1.72737C204.366 0.736929 198.739 0.408542 193.161 0.257863C190.601 0.188582 188.04 0.159378 185.478 0.143533C182.437 0.124893 179.396 0.126446 176.355 0.126446L141.048 0L114.64 0L79.9568 0.126446C76.91 0.126446 73.8632 0.124893 70.8164 0.143533C68.2496 0.159378 65.684 0.188582 63.1181 0.257863C57.5275 0.408542 51.8878 0.737239 46.3586 1.72892C40.75 2.73428 35.5294 4.3759 30.4336 6.96354C25.4246 9.50738 20.8412 12.8301 16.867 16.7946C12.8934 20.7583 9.56265 25.3296 7.01292 30.3253C4.4169 35.4114 2.77093 40.6218 1.76247 46.2199C0.769548 51.7332 0.44054 57.3568 0.289241 62.9319C0.22027 65.4913 0.190445 68.051 0.174911 70.6109C0.156271 73.6506 0 77.4263 0 80.4657L0.000932032 114.668L0 141.359L0.157824 176.288C0.157824 179.331 0.156581 182.375 0.174911 185.418C0.190445 187.982 0.22027 190.545 0.289551 193.108C0.44054 198.692 0.770169 204.326 1.76403 209.849C2.77217 215.451 4.41783 220.666 7.01168 225.756C9.56172 230.76 12.8931 235.338 16.867 239.308C20.8409 243.277 25.423 246.604 30.4312 249.151C35.53 251.744 40.7531 253.389 46.3652 254.395C51.8918 255.387 57.5297 255.716 63.1181 255.867C65.684 255.936 68.2499 255.966 70.8167 255.981C73.8635 256 76.91 255.999 79.9568 255.999L114.953 256L141.427 256L176.355 255.999C179.396 255.999 182.437 256 185.478 255.981C188.04 255.966 190.601 255.936 193.161 255.867C198.741 255.716 204.37 255.387 209.889 254.394C215.486 253.387 220.697 251.744 225.783 249.152C230.782 246.605 235.357 243.278 239.323 239.308C243.289 235.339 246.613 230.761 249.158 225.758C251.749 220.666 253.392 215.449 254.398 209.842C255.389 204.322 255.718 198.69 255.869 193.108C255.938 190.545 255.967 187.981 255.983 185.418C256.002 182.375 256 179.331 256 176.288C256 176.288 255.998 141.975 255.998 141.359L255.998 114.64C255.998 114.185 256 79.7287 256 79.7287Z"   fill="#FFFFFF" ></path><path     fill="#D43030"  d="M0 256L256 256L256 0L0 0L0 256Z"></path><path d="M128.15 15.4738C133.798 15.4738 138.377 20.0527 138.377 25.7012L138.377 66.6096C138.377 72.2581 133.798 76.837 128.15 76.837C122.502 76.837 117.923 72.2581 117.923 66.6096L117.923 25.7012C117.923 20.0527 122.502 15.4738 128.15 15.4738Z"   fill="#FFFFFF" ></path><path d="M128.15 179.042C133.798 179.042 138.377 183.621 138.377 189.269L138.377 230.177C138.377 235.826 133.798 240.405 128.15 240.405C122.502 240.405 117.923 235.826 117.923 230.177L117.923 189.269C117.923 183.621 122.502 179.042 128.15 179.042Z"   fill="#FFFFFF" ></path><path d="M48.3858 48.0749C52.3796 44.0811 58.8551 44.0811 62.8494 48.0749L91.7923 77.0178C95.786 81.0121 95.786 87.4876 91.7923 91.4813C87.7985 95.4751 81.323 95.4751 77.3287 91.4813L48.3858 62.5385C44.3921 58.5442 44.3921 52.0687 48.3858 48.0749Z"   fill="#FFFFFF" ></path><path d="M164.585 164.274C168.579 160.281 175.055 160.281 179.049 164.274L207.992 193.217C211.985 197.212 211.985 203.687 207.992 207.681C203.998 211.675 197.522 211.675 193.528 207.681L164.585 178.738C160.592 174.744 160.592 168.268 164.585 164.274Z"   fill="#FFFFFF" ></path><path d="M15.7847 127.839C15.7847 122.191 20.3636 117.612 26.0121 117.612L66.9205 117.612C72.5689 117.612 77.1479 122.191 77.1479 127.839C77.1479 133.487 72.5689 138.066 66.9205 138.066L26.0121 138.066C20.3636 138.066 15.7847 133.487 15.7847 127.839Z"   fill="#FFFFFF" ></path><path d="M179.353 127.839C179.353 122.191 183.932 117.612 189.58 117.612L230.488 117.612C236.137 117.612 240.716 122.191 240.716 127.839C240.716 133.487 236.137 138.066 230.488 138.066L189.58 138.066C183.932 138.066 179.353 133.487 179.353 127.839Z"   fill="#FFFFFF" ></path><path d="M91.7923 164.274C95.786 168.268 95.786 174.744 91.7923 178.738L62.8494 207.681C58.8551 211.675 52.3796 211.675 48.3858 207.681C44.3921 203.687 44.3921 197.212 48.3858 193.217L77.3287 164.274C81.323 160.281 87.7985 160.281 91.7923 164.274Z"   fill="#FFFFFF" ></path><path d="M207.992 48.0749C211.985 52.0687 211.985 58.5442 207.992 62.5385L179.049 91.4813C175.055 95.4751 168.579 95.4751 164.585 91.4813C160.592 87.4876 160.592 81.0121 164.585 77.0178L193.528 48.0749C197.522 44.0811 203.998 44.0811 207.992 48.0749Z"   fill="#FFFFFF" ></path><ellipse cx="150.8814916518128" cy="128.09517336354673" rx="18.591879835406555" ry="18.485432152609224"   fill="#FFFFFF" ></ellipse><ellipse cx="105.52222687063866" cy="128.09517336354673" rx="18.591867983919904" ry="18.485432152609224"   fill="#FFFFFF" ></ellipse></svg>